<?xml version="1.0" encoding="iso-8859-1"?>
<!-- Generator: Adobe Illustrator 19.0.0, SVG Export Plug-In . SVG Version: 6.00 Build 0)  -->
<svg version="1.1" id="Capa_1" xmlns="http://www.w3.org/2000/svg" xmlns:xlink="http://www.w3.org/1999/xlink" x="0px" y="0px"
	 viewBox="0 0 58 58" style="enable-background:new 0 0 58 58;" xml:space="preserve">
<rect x="21" y="13.5" style="fill:#E4C05C;" width="15" height="12"/>
<path style="fill:#556080;" d="M34,13.5h-2V10c0-1.93-1.57-3.5-3.5-3.5S25,8.07,25,10v3.5h-2V10c0-3.033,2.468-5.5,5.5-5.5
	S34,6.967,34,10V13.5z"/>
<path style="fill:#556080;" d="M48,53.5H10c-5.5,0-10-4.5-10-10v0c0-5.5,4.5-10,10-10h38c5.5,0,10,4.5,10,10v0
	C58,49,53.5,53.5,48,53.5z"/>
<g>
	<path style="fill:#8697CB;" d="M14.553,40.605L12,41.882V38.5c0-0.552-0.447-1-1-1s-1,0.448-1,1v3.382l-2.553-1.276
		c-0.493-0.248-1.094-0.046-1.342,0.447c-0.247,0.494-0.047,1.095,0.447,1.342l2.928,1.464L7.2,46.9
		c-0.332,0.442-0.242,1.069,0.2,1.4c0.18,0.135,0.39,0.2,0.599,0.2c0.305,0,0.604-0.138,0.801-0.4l2.2-2.934l2.2,2.934
		c0.196,0.262,0.496,0.4,0.801,0.4c0.209,0,0.419-0.065,0.599-0.2c0.442-0.331,0.532-0.958,0.2-1.4l-2.281-3.041l2.928-1.464
		c0.494-0.247,0.694-0.848,0.447-1.342C15.646,40.559,15.047,40.358,14.553,40.605z"/>
	<path style="fill:#8697CB;" d="M26.553,40.605L24,41.882V38.5c0-0.552-0.447-1-1-1s-1,0.448-1,1v3.382l-2.553-1.276
		c-0.493-0.248-1.094-0.046-1.342,0.447c-0.247,0.494-0.047,1.095,0.447,1.342l2.928,1.464L19.2,46.9
		c-0.332,0.442-0.242,1.069,0.2,1.4c0.18,0.135,0.39,0.2,0.599,0.2c0.305,0,0.604-0.138,0.801-0.4l2.2-2.934l2.2,2.934
		c0.196,0.262,0.496,0.4,0.801,0.4c0.209,0,0.419-0.065,0.599-0.2c0.442-0.331,0.532-0.958,0.2-1.4l-2.281-3.041l2.928-1.464
		c0.494-0.247,0.694-0.848,0.447-1.342C27.647,40.559,27.047,40.358,26.553,40.605z"/>
	<path style="fill:#8697CB;" d="M38.553,40.605L36,41.882V38.5c0-0.552-0.447-1-1-1s-1,0.448-1,1v3.382l-2.553-1.276
		c-0.495-0.248-1.094-0.046-1.342,0.447c-0.247,0.494-0.047,1.095,0.447,1.342l2.928,1.464L31.2,46.9
		c-0.332,0.442-0.242,1.069,0.2,1.4c0.18,0.135,0.39,0.2,0.599,0.2c0.305,0,0.604-0.138,0.801-0.4l2.2-2.934l2.2,2.934
		c0.196,0.262,0.496,0.4,0.801,0.4c0.209,0,0.419-0.065,0.599-0.2c0.442-0.331,0.532-0.958,0.2-1.4l-2.281-3.041l2.928-1.464
		c0.494-0.247,0.694-0.848,0.447-1.342C39.646,40.559,39.047,40.358,38.553,40.605z"/>
	<path style="fill:#8697CB;" d="M51.895,41.053c-0.248-0.494-0.848-0.695-1.342-0.447L48,41.882V38.5c0-0.552-0.447-1-1-1
		s-1,0.448-1,1v3.382l-2.553-1.276c-0.495-0.248-1.094-0.046-1.342,0.447c-0.247,0.494-0.047,1.095,0.447,1.342l2.928,1.464
		L43.2,46.9c-0.332,0.442-0.242,1.069,0.2,1.4c0.18,0.135,0.39,0.2,0.599,0.2c0.305,0,0.604-0.138,0.801-0.4l2.2-2.934l2.2,2.934
		c0.196,0.262,0.496,0.4,0.801,0.4c0.209,0,0.419-0.065,0.599-0.2c0.442-0.331,0.532-0.958,0.2-1.4l-2.281-3.041l2.928-1.464
		C51.941,42.147,52.142,41.547,51.895,41.053z"/>
</g>
<g>
</g>
<g>
</g>
<g>
</g>
<g>
</g>
<g>
</g>
<g>
</g>
<g>
</g>
<g>
</g>
<g>
</g>
<g>
</g>
<g>
</g>
<g>
</g>
<g>
</g>
<g>
</g>
<g>
</g>
</svg>
