<svg clip-rule="evenodd" fill-rule="evenodd" height="750mm" image-rendering="optimizeQuality" shape-rendering="geometricPrecision" text-rendering="geometricPrecision" viewBox="0 0 75000 75000" width="750mm" xmlns="http://www.w3.org/2000/svg"><g fill="#6aad06"><path d="m34713 43745c-5597-2035-2544-3561-4579-508-2035 2034-6105 7631-6614 10683-3052 12719 39174 19332 45279-11701 7122-33578-41209-47313-53419-15771-2543 7122-2543 15262 509 21876 1526 3561 5597 1526 4070-2035-8648-20350 10684-37648 28490-32560 31542 9157 12210 57489-17806 45279-8649-3053 1017-10175 4070-15263z"/><path d="m34740 28149 11568 7740c950 635 1205 1920 570 2870-636 950-1922 1204-2871 569l-508-340c-78 169-167 335-274 495l-3578 5347c-1155 1727-3491 2191-5218 1036l-957-639c-3221 3017-5497 1514-3097-2074l-323-216c-1726-1155-2190-3491-1035-5218l3577-5348c107-159 228-305 353-442l-508-339c-950-636-1205-1921-570-2871 636-949 1921-1205 2871-570zm7021-4927c-673-450-1584-269-2034 404l-3278 4898 2439 1631 3277-4897c451-673 270-1585-404-2036zm4302 4643-3276 4899 2439 1631 3276-4898c450-673 270-1585-403-2035-674-451-1585-269-2036 403z"/></g></svg>