<?xml version="1.0" encoding="iso-8859-1"?>
<!-- Generator: Adobe Illustrator 19.0.0, SVG Export Plug-In . SVG Version: 6.00 Build 0)  -->
<svg version="1.1" id="Layer_1" xmlns="http://www.w3.org/2000/svg" xmlns:xlink="http://www.w3.org/1999/xlink" x="0px" y="0px"
	 viewBox="0 0 512.001 512.001" style="enable-background:new 0 0 512.001 512.001;" xml:space="preserve">
<g>
	<rect x="176.552" y="132.414" style="fill:#D2555A;" width="35.31" height="35.31"/>
	<rect x="300.138" y="132.414" style="fill:#D2555A;" width="35.31" height="35.31"/>
</g>
<path style="fill:#FF6464;" d="M353.103,215.09v-42.406c0-4.434-3.284-8.239-7.678-8.834c-59.35-8.024-119.502-8.024-178.852,0
	c-4.394,0.594-7.678,4.401-7.678,8.834v42.402c0,8.995-4.567,17.377-12.126,22.253l-20.639,13.315
	c-14.042,9.059-23.817,23.42-27.094,39.807l-19.588,97.952h353.103l-19.585-97.941c-3.276-16.384-13.047-30.742-27.086-39.802
	l-20.654-13.33C357.668,232.464,353.103,224.084,353.103,215.09z"/>
<path style="fill:#D2555A;" d="M414.897,423.725H97.103c-9.751,0-17.655-7.904-17.655-17.655v-17.655h353.103v17.655
	C432.552,415.821,424.648,423.725,414.897,423.725z"/>
<path style="fill:#FF6464;" d="M256,88.276c-141.385,0-256,42.499-256,94.924v40.228c0,15.616,16.399,26.975,33.082,22.915
	l87.938-21.398c11.868-2.888,20.222-13.517,20.222-25.732v-34.084c0-8.676,6.287-16.183,14.866-17.481
	c66.218-10.023,133.568-10.023,199.786,0c8.578,1.299,14.866,8.806,14.866,17.481v34.084c0,12.214,8.353,22.844,20.222,25.732
	l87.937,21.398c16.684,4.06,33.082-7.299,33.082-22.915v-40.228C512,130.776,397.385,88.276,256,88.276z"/>
<g>
	<path style="fill:#D2555A;" d="M141.241,177.221L0,212.11v11.319c0,15.615,16.399,26.975,33.082,22.915l87.938-21.398
		c11.868-2.888,20.222-13.517,20.222-25.732v-21.993H141.241z"/>
	<path style="fill:#D2555A;" d="M370.759,177.741v21.473c0,12.214,8.353,22.844,20.222,25.732l87.938,21.398
		c16.683,4.06,33.081-7.299,33.082-22.915v-11.318L370.759,177.741z"/>
</g>
<circle style="fill:#D7DEED;" cx="256" cy="273.656" r="88.276"/>
<circle style="fill:#B8BFD4;" cx="256" cy="273.656" r="61.793"/>
<g>
	<circle style="fill:#FFFFFF;" cx="256" cy="273.656" r="44.138"/>
	<circle style="fill:#FFFFFF;" cx="256" cy="207.449" r="13.241"/>
	<circle style="fill:#FFFFFF;" cx="256" cy="339.863" r="13.241"/>
</g>
<path style="fill:#959CB3;" d="M312.945,299.923l-0.987,1.632c-1.212,2.005-0.734,4.598,1.111,6.04l25.945,20.282
	c2.187,1.709,5.376,1.123,6.812-1.252l5.063-8.378c1.436-2.376,0.471-5.472-2.059-6.613l-30.023-13.536
	C316.674,297.135,314.156,297.919,312.945,299.923z"/>
<g>
	<circle style="fill:#FFFFFF;" cx="189.793" cy="273.656" r="13.241"/>
	<circle style="fill:#FFFFFF;" cx="222.897" cy="330.991" r="13.241"/>
	<circle style="fill:#FFFFFF;" cx="289.103" cy="216.321" r="13.241"/>
	<circle style="fill:#FFFFFF;" cx="198.665" cy="240.552" r="13.241"/>
	<circle style="fill:#FFFFFF;" cx="289.103" cy="330.991" r="13.241"/>
	<circle style="fill:#FFFFFF;" cx="222.897" cy="216.321" r="13.241"/>
	<circle style="fill:#FFFFFF;" cx="198.665" cy="306.759" r="13.241"/>
</g>
<g>
</g>
<g>
</g>
<g>
</g>
<g>
</g>
<g>
</g>
<g>
</g>
<g>
</g>
<g>
</g>
<g>
</g>
<g>
</g>
<g>
</g>
<g>
</g>
<g>
</g>
<g>
</g>
<g>
</g>
</svg>
